<?xml version="1.0" encoding="UTF-8"?>
<svg id="Layer_2" data-name="Layer 2" xmlns="http://www.w3.org/2000/svg" viewBox="0 0 224.75 225.94">
  <defs>
    <style>
      .cls-1, .cls-2 {
        fill: #ffff01;
      }

      .cls-2 {
        stroke: #ffff01;
        stroke-miterlimit: 10;
      }

      .cls-3 {
        fill: #1a1a1a;
      }
    </style>
  </defs>
  <g id="Layer_2-2" data-name="Layer 2">
    <g id="DL_Button" data-name="DL Button">
      <path class="cls-1" d="m112.6,223.44c0,1.4-1.1,2.5-2.5,2.5C49.2,224.54,0,174.64,0,113.34c0-26.8,9.6-52.7,27-73.1.9-1.1,2.5-1.2,3.5-.2h0c1,.9,1.1,2.5.2,3.5C14.1,63.04,5,87.64,5,113.24c.1,58.6,47,106.3,105.1,107.6,1.4,0,2.5,1.1,2.5,2.6h0Z"/>
      <path class="cls-1" d="m119.13,2.34c.09-1.4,1.26-2.43,2.65-2.34,60.69,5.26,106.62,58.18,102.73,119.36-1.7,26.75-12.92,51.98-31.58,71.24-.97,1.04-2.57,1.04-3.51-.02h0c-.94-.96-.94-2.56.02-3.51,17.8-18.41,28.45-42.38,30.07-67.93,3.62-58.49-40.16-109.07-98.06-114.05-1.4-.09-2.43-1.26-2.33-2.75h0Z"/>
      <circle class="cls-3" cx="112.3" cy="113.34" r="84.8"/>
      <path class="cls-2" d="m128.2,98.34c.9-1.8,2-3.1,3.6-4.1,3.4-2,8.1-.9,10.1,2.6,4.1,7,8,14.1,12.2,21,2.3,3.7,3.3,7.8,4.4,11.9,1.1,4.3,2.2,8.6,3.4,12.9.5,2-.1,3.5-1.9,4.5-8.5,4.9-17,9.8-25.5,14.7-1.7,1-2.2.9-3.6-.4l-12-12c-.8-.8-1.7-1.3-2.7-1.6-6.7-1.8-13.4-3.6-20.1-5.4-5.8-1.5-7.6-7.9-4.5-12.1.5-.6.3-.8-.4-.9-7.8-1.1-14.5-4.3-19.9-10.1-5-5.3-8-11.6-8.7-18.9-1.1-10.2,2.1-19,9.1-26.4,5.3-5.5,11.8-8.8,19.4-9.7,9.3-1.1,17.7,1.3,24.9,7.3,6.9,5.7,10.8,13.1,11.7,22.1.1,1.4.1,2.8.2,4.2,0,.1.1.2.3.4h0Zm-15.9,13.2c-.1,0-.2.1-.2.1-.9-1.5-1.8-3-2.6-4.5-2-3.5-4-7-6.1-10.5-1.2-2.1-3.2-3.2-5.6-2.9-2.5.3-4.3,1.6-5,4.1-.6,2,0,3.8,1,5.5,4.8,8.3,9.6,16.6,14.4,24.9.7,1.2,1.4,2.5,2.1,3.7-.5.2-.8,0-1.1-.1-3.4-.9-6.8-1.9-10.3-2.7-2.3-.5-4.2.4-5.6,2.2-2.6,3.5-.9,8.1,3.5,9.2,6.9,1.9,13.9,3.8,20.8,5.6.8.2,1.4.6,1.9,1.1,4.2,4.2,8.4,8.4,12.6,12.6.6.6,1.1.8,1.8.3,8.6-5,17.2-9.9,25.8-14.9.8-.4.9-.9.7-1.8-1.5-5.4-2.8-10.9-4.3-16.3-.5-1.8-.6-3.7-1.6-5.4-4.5-7.9-9.1-15.8-13.7-23.7-.6-1-1.4-1.8-2.4-2.4-3.4-1.9-7.4-.1-8.5,3.9-.2.7-.3,1-1.2.7-3.4-1-6.6.7-7.5,4.2-.2.9-.5,1-1.4.8-3.3-1-6.6.9-7.3,4.3-.2.8-.2,1.4-.2,2h0Zm-17.4-39.6c-.9-.1-2.1.1-3.3.2-11.5,1.4-21.2,12-21.5,23.6-.3,11.3,5.9,20.6,16.5,24.6,4.5,1.7,9.2,2,13.9.9.6-.1,1.2-.2.7-1.1-1.1-1.8-2.1-3.7-3.2-5.6-.3-.6-.7-.7-1.4-.7-1.5.1-3,.1-4.6-.2-8.8-1.5-15.5-9.8-13.9-19.7,1.4-8.6,9.4-14.9,18.6-14.1,11.2,1,18.7,13.4,14,23.6-.5,1.1-.4,2,.2,2.9.4.6.6.5,1,0,1.5-2.1,3.6-3.1,6.1-3.2,1,0,1.2-.5,1.4-1.3.6-2.9.7-5.8.2-8.7-1.7-12.1-12.1-21.1-24.7-21.2h0Zm.3,9.4c-.6,0-1.1,0-1.7.1-11.4,1.4-17.5,13.2-11.9,23.2,2.9,5.2,7.7,7.8,13.6,7.9,1.5.1,1.6-.2.8-1.5-1.5-2.5-2.9-5.1-4.4-7.6-.6-1-.9-2.2-1-3.4-.2-3.5,2-6.8,5.3-7.8,3.5-1.1,7.2.4,9.1,3.7,1.2,2.1,2.4,4.2,3.6,6.3.2.3.2.8.6.7s.4-.5.5-.8c3.7-10.1-3.8-20.8-14.5-20.8h0Zm27.1,18.2c.6,0,1-.5,1.5-.6,1.2-.3,1.4-1,1.3-2.1-.2-9.3-3.8-17-10.9-23-12-10-29.7-9.1-40.5,2.1-6.5,6.7-9.4,14.9-8.4,24.3,1,9.1,5.4,16.3,12.9,21.5,4.8,3.4,10.3,5,16.2,5.2,3.1.1,6.1-.4,9-1.2.3-.1.7,0,.7-.6,0-1-1.3-2.1-2.3-1.8-2.1.5-4.3.9-6.4.9-8.9-.1-16.2-3.5-21.7-10.5-8.6-10.9-7.8-26.3,2.3-36.2,6.2-6.2,13.9-8.9,22.6-7.6,11,1.6,18.3,7.8,22.3,18.1,1.3,3.6,1.7,7.5,1.4,11.5h0Z"/>
    </g>
  </g>
</svg>