<?xml version="1.0" encoding="utf-8"?>
<!-- Generator: Adobe Illustrator 27.1.1, SVG Export Plug-In . SVG Version: 6.00 Build 0)  -->
<svg version="1.1" id="Layer_2_00000009564852892757129190000005036013648270613432_"
	 xmlns="http://www.w3.org/2000/svg" xmlns:xlink="http://www.w3.org/1999/xlink" x="0px" y="0px" viewBox="0 0 717.7 286.3"
	 style="enable-background:new 0 0 717.7 286.3;" xml:space="preserve">
<style type="text/css">
	.st0{fill:#1A1A1A;}
	.st1{fill:#FFFF01;}
	.st2{opacity:0.25;}
	.st3{fill:#FFFF01;stroke:#FFFF01;stroke-miterlimit:10;}
</style>
<g id="DL_Button">
	<path class="st0" d="M667.2,215.3L667.2,215.3c-1.3-0.5-2-1.9-1.5-3.2l43.2-121.2c7-19.7,4-41.6-8-58.6
		c-12.6-17.9-33.7-28.2-55.6-27.2L410.9,16.5c-1.4,0.1-2.6-1-2.6-2.4l0,0c-0.1-1.4,1-2.6,2.4-2.6L645,0.1c23.7-1.1,46.4,10,60,29.3
		c13,18.4,16.2,42,8.6,63.2l-43.2,121.2C670,215.1,668.5,215.8,667.2,215.3z"/>
	<path class="st1" d="M653.2,30.8L167.7,54.3c-7.1,0.3-13.7,2.5-19.4,5.9c42.4,12.5,73.4,51.7,73.4,98.2c0,38.9-21.7,72.7-53.6,90
		c6.9,6.6,16,10.8,26,11.5l396.7,26.3c18.5,1.2,35.6-10,41.8-27.5l61.6-172.6C704.2,58.3,682.7,29.3,653.2,30.8L653.2,30.8z"/>
	<path class="st1" d="M112.6,265.6c0,1.4-1.1,2.5-2.5,2.5C49.2,266.7,0,216.8,0,155.5c0-26.8,9.6-52.7,27-73.1
		c0.9-1.1,2.5-1.2,3.5-0.2l0,0c1,0.9,1.1,2.5,0.2,3.5c-16.6,19.5-25.7,44.1-25.7,69.7C5.1,214,52,261.7,110.1,263
		C111.5,263,112.6,264.1,112.6,265.6L112.6,265.6L112.6,265.6z"/>
	<circle class="st0" cx="112.3" cy="155.5" r="84.8"/>
	<g class="st2">
		<g>
			<path d="M252.3,116.5v-8.1h32.4v8.1H252.3L252.3,116.5z M259.4,139.2V86.5h23.9c5.7,0,10.7,1.1,15.1,3.3s7.8,5.2,10.2,9.2
				s3.7,8.6,3.7,13.9s-1.2,9.9-3.7,13.9c-2.5,3.9-5.9,7-10.2,9.2s-9.4,3.3-15.1,3.3L259.4,139.2L259.4,139.2z M271.6,129.3h11
				c3.5,0,6.5-0.7,9.1-2c2.6-1.3,4.6-3.2,6-5.7c1.4-2.5,2.1-5.4,2.1-8.7s-0.7-6.3-2.1-8.7c-1.4-2.5-3.4-4.3-6-5.7s-5.6-2-9.1-2h-11
				V129.3L271.6,129.3z"/>
			<path d="M313.7,139.2L337,86.5h12l23.5,52.7h-12.8l-19.3-46.5h4.9l-19.3,46.5H313.7z M325.4,127.9l3.1-9.3h27.1l3.1,9.3H325.4z
				 M343.1,82.8c-3.9,0-7.1-1-9.7-3.1c-2.6-2.1-4-4.8-4.2-8.3h7.4c0.1,1.6,0.8,2.9,2,3.9c1.2,1,2.8,1.5,4.5,1.5s3.3-0.5,4.5-1.5
				c1.2-1,1.9-2.3,2-3.9h7.4c-0.2,3.5-1.6,6.3-4.2,8.3C350.2,81.8,347,82.8,343.1,82.8L343.1,82.8z M343.1,155
				c-1.5,0-2.7-0.4-3.7-1.4c-1-0.9-1.5-2.1-1.5-3.7s0.5-2.8,1.5-3.8s2.2-1.5,3.7-1.5s2.7,0.5,3.7,1.5s1.5,2.2,1.5,3.8
				s-0.5,2.8-1.5,3.7C345.7,154.6,344.5,155,343.1,155z"/>
			<path d="M386.3,139.2V96.5h-16.8v-9.9h45.7v9.9h-16.8v42.8H386.3L386.3,139.2z"/>
			<path d="M443,139.2V86.5h12.2v42.8h26.2v9.9H443L443,139.2z"/>
			<path d="M488.3,139.2V86.5h12.2v52.7H488.3z M494.3,155c-1.5,0-2.7-0.4-3.7-1.4c-1-0.9-1.5-2.1-1.5-3.7s0.5-2.8,1.5-3.8
				s2.2-1.5,3.7-1.5s2.7,0.5,3.7,1.5s1.5,2.2,1.5,3.8s-0.5,2.8-1.5,3.7C497,154.6,495.8,155,494.3,155z"/>
			<path d="M538,140.1c-4,0-7.8-0.7-11.3-2s-6.5-3.2-9-5.7c-2.5-2.5-4.5-5.3-6-8.7s-2.1-6.9-2.1-10.9s0.7-7.6,2.1-10.9
				c1.4-3.3,3.4-6.2,6-8.7c2.6-2.5,5.6-4.3,9.1-5.7c3.5-1.3,7.2-2,11.3-2c4.5,0,8.7,0.8,12.4,2.4s6.8,3.9,9.3,7l-7.9,7.2
				c-1.8-2.1-3.7-3.6-6-4.7c-2.2-1.1-4.6-1.6-7.2-1.6c-2.5,0-4.7,0.4-6.8,1.2c-2,0.8-3.8,2-5.3,3.5s-2.7,3.3-3.5,5.3
				c-0.8,2.1-1.2,4.3-1.2,6.8s0.4,4.8,1.2,6.8s2,3.8,3.5,5.3s3.3,2.7,5.3,3.5s4.3,1.2,6.8,1.2c2.6,0,5-0.5,7.2-1.6
				c2.2-1.1,4.2-2.7,6-4.7l7.9,7.2c-2.5,3.1-5.6,5.4-9.3,7S542.6,140.1,538,140.1L538,140.1z"/>
			<path d="M580,139.2h-12.2V86.5H580V139.2z M604.7,117.6h-25.7v-10.3h25.7V117.6z M603.8,86.5H616v52.7h-12.2
				C603.8,139.2,603.8,86.5,603.8,86.5z"/>
		</g>
		<g>
			<path d="M261.2,234.5v-59.3h16.4l30,36.1H300v-36.1h19.4v59.3H303l-30-36.1h7.6v36.1L261.2,234.5L261.2,234.5z"/>
			<path d="M359.7,235.8c-4.8,0-9.2-0.8-13.2-2.2c-4-1.5-7.5-3.6-10.5-6.4c-3-2.8-5.2-6-6.9-9.8s-2.5-8-2.5-12.5s0.8-8.8,2.5-12.5
				c1.6-3.8,3.9-7.1,6.9-9.8c3-2.8,6.5-4.9,10.6-6.4c4.1-1.5,8.6-2.2,13.5-2.2c5.9,0,11.1,1,15.6,3c4.6,2,8.4,4.8,11.4,8.5
				l-12.7,11.3c-1.9-2.1-3.9-3.8-6-4.9c-2.2-1.1-4.6-1.6-7.2-1.6c-2.2,0-4.2,0.3-6,1c-1.8,0.7-3.3,1.7-4.5,3
				c-1.2,1.3-2.2,2.9-2.9,4.7c-0.7,1.8-1,3.9-1,6.2s0.3,4.2,1,6.1s1.6,3.4,2.9,4.7s2.7,2.3,4.4,3c1.7,0.7,3.6,1.1,5.8,1.1
				c2.2,0,4.4-0.4,6.6-1.1c2.1-0.8,4.4-2.1,6.8-3.9l11.1,13.7c-3.6,2.4-7.7,4.3-12.3,5.6C368.5,235.2,364,235.9,359.7,235.8
				L359.7,235.8z M368.1,225.8v-22.5h17.3v25.1L368.1,225.8z"/>
			<path d="M387.5,234.5l25.8-59.3h19.6l25.8,59.3h-20.6l-19.1-49.8h7.8l-19.1,49.8L387.5,234.5L387.5,234.5z M402.9,224.1l5.1-14.4
				h27.2l5.1,14.4H402.9z"/>
			<path d="M473.3,234.5v-26l4.6,11.9L451,175.2h21l18.1,30.9h-12.2l18.3-30.9h19.2l-26.7,45.2l4.4-11.9v26H473.3L473.3,234.5z"/>
			<path d="M544.2,211.8l-3.8-36.6h22.8l-3.8,36.6H544.2L544.2,211.8z M551.8,235.3c-3.3,0-5.9-1-8-3c-2.1-2-3.1-4.4-3.1-7.2
				s1-5.2,3.1-7.1s4.8-2.9,8-2.9s6,1,8.1,2.9c2,1.9,3.1,4.3,3.1,7.1s-1,5.1-3.1,7.2C557.8,234.3,555.1,235.3,551.8,235.3z"/>
			<path d="M570.7,211.8l-3.8-36.6h22.8l-3.8,36.6H570.7L570.7,211.8z M578.2,235.3c-3.3,0-5.9-1-8-3c-2.1-2-3.1-4.4-3.1-7.2
				s1-5.2,3.1-7.1s4.8-2.9,8-2.9s6,1,8.1,2.9c2,1.9,3.1,4.3,3.1,7.1s-1,5.1-3.1,7.2C584.3,234.3,581.6,235.3,578.2,235.3z"/>
			<path d="M597.2,211.8l-3.8-36.6h22.8l-3.8,36.6H597.2L597.2,211.8z M604.7,235.3c-3.3,0-5.9-1-8-3c-2.1-2-3.1-4.4-3.1-7.2
				s1-5.2,3.1-7.1s4.8-2.9,8-2.9s6,1,8.1,2.9c2,1.9,3.1,4.3,3.1,7.1s-1,5.1-3.1,7.2C610.8,234.3,608.1,235.3,604.7,235.3z"/>
		</g>
	</g>
	<g>
		<g>
			<path d="M249.3,114.1V106h32.4v8.1H249.3z M256.4,136.8V84.1h23.9c5.7,0,10.7,1.1,15.1,3.3s7.8,5.2,10.2,9.2s3.7,8.6,3.7,13.9
				s-1.2,9.9-3.7,13.9c-2.5,3.9-5.9,7-10.2,9.2s-9.4,3.3-15.1,3.3L256.4,136.8L256.4,136.8z M268.7,126.9h11c3.5,0,6.5-0.7,9.1-2
				c2.6-1.3,4.6-3.2,6-5.7c1.4-2.5,2.1-5.4,2.1-8.7s-0.7-6.3-2.1-8.7c-1.4-2.5-3.4-4.3-6-5.7s-5.6-2-9.1-2h-11V126.9L268.7,126.9z"
				/>
			<path d="M310.7,136.8l23.3-52.7h12l23.5,52.7h-12.8l-19.3-46.5h4.9l-19.3,46.5H310.7z M322.5,125.5l3.1-9.3h27.1l3.1,9.3H322.5z
				 M340.1,80.5c-3.9,0-7.1-1-9.7-3.1c-2.6-2.1-4-4.8-4.2-8.3h7.4c0.1,1.6,0.8,2.9,2,3.9c1.2,1,2.8,1.5,4.5,1.5s3.3-0.5,4.5-1.5
				c1.2-1,1.9-2.3,2-3.9h7.4c-0.2,3.5-1.6,6.3-4.2,8.3C347.3,79.4,344,80.5,340.1,80.5L340.1,80.5z M340.1,152.6
				c-1.5,0-2.7-0.4-3.7-1.4c-1-0.9-1.5-2.1-1.5-3.7s0.5-2.8,1.5-3.8s2.2-1.5,3.7-1.5s2.7,0.5,3.7,1.5s1.5,2.2,1.5,3.8
				s-0.5,2.8-1.5,3.7C342.8,152.2,341.6,152.6,340.1,152.6z"/>
			<path d="M383.3,136.8V94.1h-16.8v-9.9h45.7v9.9h-16.8v42.8H383.3L383.3,136.8z"/>
			<path d="M440,136.8V84.1h12.2v42.8h26.2v9.9H440L440,136.8z"/>
			<path d="M485.3,136.8V84.1h12.2v52.7H485.3z M491.4,152.6c-1.5,0-2.7-0.4-3.7-1.4c-1-0.9-1.5-2.1-1.5-3.7s0.5-2.8,1.5-3.8
				s2.2-1.5,3.7-1.5s2.7,0.5,3.7,1.5s1.5,2.2,1.5,3.8s-0.5,2.8-1.5,3.7C494.1,152.2,492.8,152.6,491.4,152.6z"/>
			<path d="M535,137.7c-4,0-7.8-0.7-11.3-2s-6.5-3.2-9-5.7c-2.5-2.5-4.5-5.3-6-8.7s-2.1-6.9-2.1-10.9s0.7-7.6,2.1-10.9
				c1.4-3.3,3.4-6.2,6-8.7c2.6-2.5,5.6-4.3,9.1-5.7c3.5-1.3,7.2-2,11.3-2c4.5,0,8.7,0.8,12.4,2.4s6.8,3.9,9.3,7l-7.9,7.2
				c-1.8-2.1-3.7-3.6-6-4.7c-2.2-1.1-4.6-1.6-7.2-1.6c-2.5,0-4.7,0.4-6.8,1.2c-2,0.8-3.8,2-5.3,3.5s-2.7,3.3-3.5,5.3
				c-0.8,2.1-1.2,4.3-1.2,6.8s0.4,4.8,1.2,6.8s2,3.8,3.5,5.3s3.3,2.7,5.3,3.5s4.3,1.2,6.8,1.2c2.6,0,5-0.5,7.2-1.6
				c2.2-1.1,4.2-2.7,6-4.7l7.9,7.2c-2.5,3.1-5.6,5.4-9.3,7S539.6,137.7,535,137.7L535,137.7z"/>
			<path d="M577.1,136.8h-12.2V84.1h12.2V136.8z M601.8,115.2h-25.7v-10.3h25.7V115.2z M600.9,84.1H613v52.7h-12.2
				C600.9,136.8,600.9,84.1,600.9,84.1z"/>
		</g>
		<g>
			<path d="M258.3,232.1v-59.3h16.4l30,36.1h-7.6v-36.1h19.4v59.3h-16.4l-30-36.1h7.6v36.1H258.3z"/>
			<path d="M356.7,233.4c-4.8,0-9.2-0.8-13.2-2.2c-4-1.5-7.5-3.6-10.5-6.4c-3-2.8-5.2-6-6.9-9.8c-1.6-3.8-2.5-8-2.5-12.5
				s0.8-8.8,2.5-12.5c1.6-3.8,3.9-7.1,6.9-9.8c3-2.8,6.5-4.9,10.6-6.4c4.1-1.5,8.6-2.2,13.5-2.2c5.9,0,11.1,1,15.6,3
				c4.6,2,8.4,4.8,11.4,8.5l-12.7,11.3c-1.9-2.1-3.9-3.8-6-4.9c-2.2-1.1-4.6-1.6-7.2-1.6c-2.2,0-4.2,0.3-6,1c-1.8,0.7-3.3,1.7-4.5,3
				c-1.2,1.3-2.2,2.9-2.9,4.7c-0.7,1.8-1,3.9-1,6.2s0.3,4.2,1,6.1s1.6,3.4,2.9,4.7s2.7,2.3,4.4,3c1.7,0.7,3.6,1.1,5.8,1.1
				c2.2,0,4.4-0.4,6.6-1.1c2.1-0.8,4.4-2.1,6.8-3.9l11.1,13.7c-3.6,2.4-7.7,4.3-12.3,5.6C365.5,232.8,361,233.5,356.7,233.4
				L356.7,233.4z M365.1,223.3v-22.5h17.3v25.1L365.1,223.3z"/>
			<path d="M384.5,232.1l25.8-59.3h19.6l25.8,59.3h-20.6l-19.1-49.8h7.8l-19.1,49.8H384.5L384.5,232.1z M399.9,221.7l5.1-14.4h27.2
				l5.1,14.4H399.9z"/>
			<path d="M470.4,232.1v-26l4.6,11.9l-26.8-45.2h21l18.1,30.9H475l18.3-30.9h19.2L485.9,218l4.4-11.9v26L470.4,232.1L470.4,232.1z"
				/>
			<path d="M541.2,209.4l-3.8-36.6h22.8l-3.8,36.6H541.2L541.2,209.4z M548.8,232.9c-3.3,0-5.9-1-8-3c-2.1-2-3.1-4.4-3.1-7.2
				s1-5.2,3.1-7.1s4.8-2.9,8-2.9s6,1,8.1,2.9c2,1.9,3.1,4.3,3.1,7.1s-1,5.1-3.1,7.2C554.8,231.9,552.1,232.9,548.8,232.9z"/>
			<path d="M567.7,209.4l-3.8-36.6h22.8l-3.8,36.6H567.7L567.7,209.4z M575.3,232.9c-3.3,0-5.9-1-8-3c-2.1-2-3.1-4.4-3.1-7.2
				s1-5.2,3.1-7.1s4.8-2.9,8-2.9s6,1,8.1,2.9c2,1.9,3.1,4.3,3.1,7.1s-1,5.1-3.1,7.2C581.3,231.9,578.6,232.9,575.3,232.9z"/>
			<path d="M594.2,209.4l-3.8-36.6h22.8l-3.8,36.6H594.2L594.2,209.4z M601.8,232.9c-3.3,0-5.9-1-8-3c-2.1-2-3.1-4.4-3.1-7.2
				s1-5.2,3.1-7.1s4.8-2.9,8-2.9s6,1,8.1,2.9c2,1.9,3.1,4.3,3.1,7.1s-1,5.1-3.1,7.2C607.8,231.9,605.1,232.9,601.8,232.9z"/>
		</g>
	</g>
	<path class="st3" d="M128.2,140.5c0.9-1.8,2-3.1,3.6-4.1c3.4-2,8.1-0.9,10.1,2.6c4.1,7,8,14.1,12.2,21c2.3,3.7,3.3,7.8,4.4,11.9
		c1.1,4.3,2.2,8.6,3.4,12.9c0.5,2-0.1,3.5-1.9,4.5c-8.5,4.9-17,9.8-25.5,14.7c-1.7,1-2.2,0.9-3.6-0.4c-4-4-8-8-12-12
		c-0.8-0.8-1.7-1.3-2.7-1.6c-6.7-1.8-13.4-3.6-20.1-5.4c-5.8-1.5-7.6-7.9-4.5-12.1c0.5-0.6,0.3-0.8-0.4-0.9
		c-7.8-1.1-14.5-4.3-19.9-10.1c-5-5.3-8-11.6-8.7-18.9c-1.1-10.2,2.1-19,9.1-26.4c5.3-5.5,11.8-8.8,19.4-9.7
		c9.3-1.1,17.7,1.3,24.9,7.3c6.9,5.7,10.8,13.1,11.7,22.1c0.1,1.4,0.1,2.8,0.2,4.2C127.9,140.2,128,140.3,128.2,140.5L128.2,140.5z
		 M112.3,153.7c-0.1,0-0.2,0.1-0.2,0.1c-0.9-1.5-1.8-3-2.6-4.5c-2-3.5-4-7-6.1-10.5c-1.2-2.1-3.2-3.2-5.6-2.9
		c-2.5,0.3-4.3,1.6-5,4.1c-0.6,2,0,3.8,1,5.5c4.8,8.3,9.6,16.6,14.4,24.9c0.7,1.2,1.4,2.5,2.1,3.7c-0.5,0.2-0.8,0-1.1-0.1
		c-3.4-0.9-6.8-1.9-10.3-2.7c-2.3-0.5-4.2,0.4-5.6,2.2c-2.6,3.5-0.9,8.1,3.5,9.2c6.9,1.9,13.9,3.8,20.8,5.6c0.8,0.2,1.4,0.6,1.9,1.1
		c4.2,4.2,8.4,8.4,12.6,12.6c0.6,0.6,1.1,0.8,1.8,0.3c8.6-5,17.2-9.9,25.8-14.9c0.8-0.4,0.9-0.9,0.7-1.8c-1.5-5.4-2.8-10.9-4.3-16.3
		c-0.5-1.8-0.6-3.7-1.6-5.4c-4.5-7.9-9.1-15.8-13.7-23.7c-0.6-1-1.4-1.8-2.4-2.4c-3.4-1.9-7.4-0.1-8.5,3.9c-0.2,0.7-0.3,1-1.2,0.7
		c-3.4-1-6.6,0.7-7.5,4.2c-0.2,0.9-0.5,1-1.4,0.8c-3.3-1-6.6,0.9-7.3,4.3C112.3,152.5,112.3,153.1,112.3,153.7L112.3,153.7z
		 M94.9,114.1c-0.9-0.1-2.1,0.1-3.3,0.2c-11.5,1.4-21.2,12-21.5,23.6c-0.3,11.3,5.9,20.6,16.5,24.6c4.5,1.7,9.2,2,13.9,0.9
		c0.6-0.1,1.2-0.2,0.7-1.1c-1.1-1.8-2.1-3.7-3.2-5.6c-0.3-0.6-0.7-0.7-1.4-0.7c-1.5,0.1-3,0.1-4.6-0.2c-8.8-1.5-15.5-9.8-13.9-19.7
		c1.4-8.6,9.4-14.9,18.6-14.1c11.2,1,18.7,13.4,14,23.6c-0.5,1.1-0.4,2,0.2,2.9c0.4,0.6,0.6,0.5,1,0c1.5-2.1,3.6-3.1,6.1-3.2
		c1,0,1.2-0.5,1.4-1.3c0.6-2.9,0.7-5.8,0.2-8.7C117.9,123.2,107.5,114.2,94.9,114.1L94.9,114.1z M95.2,123.5c-0.6,0-1.1,0-1.7,0.1
		C82.1,125,76,136.8,81.6,146.8c2.9,5.2,7.7,7.8,13.6,7.9c1.5,0.1,1.6-0.2,0.8-1.5c-1.5-2.5-2.9-5.1-4.4-7.6c-0.6-1-0.9-2.2-1-3.4
		c-0.2-3.5,2-6.8,5.3-7.8c3.5-1.1,7.2,0.4,9.1,3.7c1.2,2.1,2.4,4.2,3.6,6.3c0.2,0.3,0.2,0.8,0.6,0.7c0.4-0.1,0.4-0.5,0.5-0.8
		C113.4,134.2,105.9,123.5,95.2,123.5L95.2,123.5z M122.3,141.7c0.6,0,1-0.5,1.5-0.6c1.2-0.3,1.4-1,1.3-2.1c-0.2-9.3-3.8-17-10.9-23
		c-12-10-29.7-9.1-40.5,2.1c-6.5,6.7-9.4,14.9-8.4,24.3c1,9.1,5.4,16.3,12.9,21.5c4.8,3.4,10.3,5,16.2,5.2c3.1,0.1,6.1-0.4,9-1.2
		c0.3-0.1,0.7,0,0.7-0.6c0-1-1.3-2.1-2.3-1.8c-2.1,0.5-4.3,0.9-6.4,0.9c-8.9-0.1-16.2-3.5-21.7-10.5c-8.6-10.9-7.8-26.3,2.3-36.2
		c6.2-6.2,13.9-8.9,22.6-7.6c11,1.6,18.3,7.8,22.3,18.1C122.2,133.8,122.6,137.7,122.3,141.7L122.3,141.7z"/>
</g>
<image style="display:none;overflow:visible;" width="70" height="77" xlink:href="7CDFB97E.jpg"  transform="matrix(1 0 0 1 15 -38.5)">
</image>
</svg>
